# xmcd
#
# Track frame offsets:
#	150
#	11530
#	26767
#	42837
#	54957
#	73330
#	92630
#	105065
#	119870
#	136552
#	149525
#	167665
#	180995
#	199827
#	211212
#	222432
#	245047
#	255685
#
# Disc length: 3762
#
# Revision: 3
# Processed by: cddbd v1.5.1PL0 Copyright (c) Steve Scherf et al.
# Submitted via: EasyCDDAExtractor 5.1.0
# Normalized: r2:DSETVAR1
#
DISCID=030eb012
DTITLE=Various Artist - Good Times/18 shag and swing dance favorites
DYEAR=1900
DGENRE=Blues
TTITLE0=Peter Burger - My Baby Just Cares For Me
TTITLE1=Tommy Hunt - Loving On The Losing Side
TTITLE2=Rhythm Sheiks - Avalon
TTITLE3=Irene Reid - Brand New Me
TTITLE4=Gene Chandler - Let Me Make Love To You
TTITLE5=Maurice Vaughan - Mojo Hand
TTITLE6=Hamilton King - Diana
TTITLE7=Billy Eckstine - The Best Thing
TTITLE8=Shelly Black - Free And Red Hot
TTITLE9=Rocky Fellers - Lonely Teardrops
TTITLE10=Gene Chandler - I'll Make The Living If You Make The Loving Worthwhile
TTITLE11=Irene Reid - No Yesterday
TTITLE12=Sonny Charles - Per-So-Nal-Ly
TTITLE13=Margie Day - Send For Me
TTITLE14=Johnnie Lee Wills - Milk Cow Blues
TTITLE15=Kenny Hamber - Never Found A Girl
TTITLE16=Barbara Greene - Young Boy
TTITLE17=A C Reed - Help Me Spend My Gold
EXTD=
EXTT0=
EXTT1=
EXTT2=
EXTT3=
EXTT4=
EXTT5=
EXTT6=
EXTT7=
EXTT8=
EXTT9=
EXTT10=
EXTT11=
EXTT12=
EXTT13=
EXTT14=
EXTT15=
EXTT16=
EXTT17=
PLAYORDER=
